HIERARCHY
ROOT hip
{
	OFFSET 0.000000 0.000000 0.000000 
	CHANNELS 6 Xposition Yposition Zposition Xrotation Zrotation Yrotation
	JOINT abdomen
	{
		OFFSET 0.000000 3.402643 0.000000 
		CHANNELS 3 Xrotation Zrotation Yrotation
		JOINT chest
		{
			OFFSET 0.000000 8.438565 -0.680529 
			CHANNELS 3 Xrotation Zrotation Yrotation
			JOINT neck
			{
				OFFSET 0.000000 10.207942 -0.272212 
				CHANNELS 3 Xrotation Zrotation Yrotation
				JOINT head
				{
					OFFSET 0.000000 3.130431 0.000000 
					CHANNELS 3 Xrotation Zrotation Yrotation
					End Site
					{
						OFFSET 0.000000 3.130435 0.000000 
					}
				}
			}
			JOINT lCollar
			{
				OFFSET 3.470700 6.669187 -0.816635 
				CHANNELS 3 Yrotation Zrotation Xrotation
				JOINT lShldr
				{
					OFFSET 3.198488 0.000000 0.000000 
					CHANNELS 3 Zrotation Yrotation Xrotation
					JOINT lForeArm
					{
						OFFSET 10.139888 0.000000 0.000000 
						CHANNELS 3 Yrotation Zrotation Xrotation
						JOINT lHand
						{
							OFFSET 8.370511 0.000000 0.000000 
							CHANNELS 3 Zrotation Yrotation Xrotation
							End Site
							{
								OFFSET 4.083176 0.000000 0.000000 
							}
						}
					}
				}
			}
			JOINT rCollar
			{
				OFFSET -3.470700 6.669187 -0.816635 
				CHANNELS 3 Yrotation Zrotation Xrotation
				JOINT rShldr
				{
					OFFSET -3.198488 0.000000 0.000000 
					CHANNELS 3 Zrotation Yrotation Xrotation
					JOINT rForeArm
					{
						OFFSET -10.139888 0.000000 0.000000 
						CHANNELS 3 Yrotation Zrotation Xrotation
						JOINT rHand
						{
							OFFSET -8.370511 0.000000 0.000000 
							CHANNELS 3 Zrotation Yrotation Xrotation
							End Site
							{
								OFFSET -4.083176 0.000000 0.000000 
							}
						}
					}
				}
			}
		}
	}
	JOINT lThigh
	{
		OFFSET 5.308129 -1.633274 1.361059 
		CHANNELS 3 Xrotation Zrotation Yrotation
		JOINT lShin
		{
			OFFSET -2.041588 -20.007561 0.000000 
			CHANNELS 3 Xrotation Zrotation Yrotation
			JOINT lFoot
			{
				OFFSET 0.000000 -19.190928 -1.224953 
				CHANNELS 3 Xrotation Yrotation Zrotation
				End Site
				{
					OFFSET 0.000000 -2.449906 4.627600 
				}
			}
		}
	}
	JOINT rThigh
	{
		OFFSET -5.308129 -1.633274 1.361059 
		CHANNELS 3 Xrotation Zrotation Yrotation
		JOINT rShin
		{
			OFFSET 2.041588 -20.007561 0.000000 
			CHANNELS 3 Xrotation Zrotation Yrotation
			JOINT rFoot
			{
				OFFSET 0.000000 -19.190928 -1.224953 
				CHANNELS 3 Xrotation Yrotation Zrotation
				End Site
				{
					OFFSET 0.000000 -2.449906 4.627600 
				}
			}
		}
	}
}
MOTION
Frames: 11
Frame Time: 0.033333
-14.808577 37.758385 -36.119366 -3.747711 0.523189 -7.197498 0.000000 0.000000 0.000000 9.523909 -1.339307 -23.014633 -11.586077 -5.868192 6.694987 -2.066217 9.510380 0.971307 -3.521967 9.154817 6.304141 -7.008364 -60.593143 -75.617981 -7.574855 -0.328226 56.418941 9.344114 0.984858 -8.716123 3.089181 -14.089146 8.026228 88.409996 38.404205 -5.603157 94.608276 24.179518 -23.945700 -2.035238 0.633593 -8.229750 -17.245541 36.627518 16.880804 58.898491 -0.993861 -31.050703 -20.087585 -2.608921 11.710552 -26.782917 -35.090076 -10.099026 48.923908 -5.484714 37.745724 -15.205110 2.582335 -14.180197 
-14.807085 37.768345 -36.068802 -3.934477 0.290495 -7.451224 0.000000 0.000000 0.000000 10.334855 -1.306522 -25.319706 -11.959535 -5.799131 7.557791 -2.262419 10.162291 1.568724 -3.521967 9.154817 6.304141 -3.744861 -58.080875 -79.843811 -7.078172 -1.086535 60.056152 9.396878 1.673485 -8.711491 3.089181 -14.089146 8.026228 86.520782 34.311424 -6.136532 99.401085 24.131849 -26.903727 -0.619662 1.599157 -8.022030 -16.698719 36.898720 17.265951 58.832832 -1.011798 -30.933048 -20.314848 -2.667476 11.824996 -26.541777 -34.851326 -10.091730 48.865585 -5.465457 37.803413 -15.205833 2.561293 -14.224556 
-14.776027 37.746868 -36.070065 -3.759361 0.493389 -7.842009 0.000000 0.000000 0.000000 10.714523 -1.215151 -27.282209 -12.101292 -6.748823 8.673645 -2.590842 11.274271 1.733242 -3.521967 9.154817 6.304141 -1.331417 -55.308754 -83.096565 -6.378043 -2.152697 62.357925 9.524501 1.806803 -8.728191 3.089181 -14.089146 8.026228 84.593506 30.443642 -6.240285 103.901299 23.573853 -28.098366 0.826149 2.528253 -7.789359 -16.668909 36.758617 17.383865 58.991211 -1.078904 -30.891201 -20.300438 -2.654342 11.765594 -27.145189 -34.915920 -9.723097 48.932121 -5.533734 38.021770 -15.236651 2.612209 -14.264190 
-14.763746 37.705025 -36.105099 -3.489120 0.763572 -8.213588 0.000000 0.000000 0.000000 11.114600 -1.120942 -28.814785 -13.237914 -7.351792 9.866369 -2.597465 11.797835 2.246666 -3.521967 9.154817 6.304141 0.839914 -52.994709 -85.749756 -5.974357 -2.740667 64.154167 9.377122 1.480429 -8.713838 3.089181 -14.089146 8.026228 81.855103 27.164955 -7.380726 109.587944 23.951483 -33.152729 0.084138 3.037933 -7.836099 -16.786295 36.575954 17.485220 59.097042 -1.216640 -30.662979 -20.455803 -2.664464 11.784782 -27.994581 -35.013515 -9.283337 49.125217 -5.619434 38.219841 -15.308723 2.656859 -14.286193 
-14.756215 37.669922 -36.109459 -3.228832 0.763076 -8.467472 0.000000 0.000000 0.000000 11.349023 -0.963355 -30.082956 -13.772293 -7.565982 10.581089 -2.661857 12.145898 2.618399 -3.521967 9.154817 6.304141 2.413972 -51.282978 -87.328400 -5.728329 -3.152959 66.175705 10.117679 1.549475 -8.781215 3.089181 -14.089146 8.026228 79.695450 23.769054 -8.872853 113.999367 23.918354 -37.590672 -0.675009 2.785008 -7.962853 -16.932991 36.665886 17.555187 59.240879 -1.237712 -30.403419 -20.743969 -2.704535 11.866341 -28.523561 -34.938267 -9.051978 49.255104 -5.661349 38.315659 -15.260195 2.582467 -14.280714 
-14.734917 37.661095 -36.079918 -3.285753 0.791482 -8.741013 0.000000 0.000000 0.000000 11.860596 -1.101782 -31.276054 -14.063661 -7.244350 11.174172 -3.039746 12.393708 3.170208 -3.521967 9.154817 6.304141 3.725852 -49.675797 -87.779701 -5.463570 -3.577744 67.546158 10.116723 1.810939 -8.784330 3.089181 -14.089146 8.026228 78.063759 21.400700 -9.903566 118.445770 24.537413 -45.376678 -5.842136 3.401349 -8.590860 -16.699387 36.638489 17.666698 59.378433 -1.277095 -30.385021 -20.793741 -2.692555 11.851890 -28.669575 -34.918232 -8.909399 49.283169 -5.717049 38.531048 -15.242805 2.624319 -14.302111 
-14.735978 37.644981 -36.046661 -3.412399 0.646321 -8.955605 0.000000 0.000000 0.000000 12.626696 -0.918354 -32.094463 -15.281703 -6.856272 11.764025 -2.806548 12.552023 3.752736 -3.521967 9.154817 6.304141 5.241466 -48.328358 -88.061562 -5.241946 -3.920570 68.179382 10.076138 2.072481 -8.767448 3.089181 -14.089146 8.026228 76.968353 19.096239 -10.526333 121.323341 24.377806 -47.639103 -7.556461 3.631890 -8.826132 -16.366331 36.847679 17.904808 59.409401 -1.265584 -30.313267 -21.013250 -2.750435 11.944383 -28.599371 -34.739426 -8.796773 49.286377 -5.751356 38.604252 -15.222322 2.613095 -14.296541 
-14.694715 37.608421 -36.014023 -3.698610 1.079948 -9.112823 0.000000 0.000000 0.000000 13.303698 -1.382574 -33.106747 -15.578663 -6.900889 12.267679 -2.926108 12.888929 4.038815 -3.521967 9.154817 6.304141 6.144788 -46.998158 -88.471436 -5.157170 -4.025756 68.482697 10.071294 2.230819 -8.758759 3.089181 -14.089146 8.026228 76.545952 17.655727 -10.698356 123.247894 24.041145 -48.800110 -9.371873 3.938882 -9.065462 -15.927342 36.266132 17.945192 59.448669 -1.333771 -29.949549 -21.250723 -2.805248 12.049627 -28.717520 -35.248718 -8.690204 49.468452 -5.903880 38.945427 -15.248626 2.634426 -14.340537 
-14.687458 37.567009 -36.007889 -3.607653 1.011176 -9.552210 0.000000 0.000000 0.000000 13.396758 -1.321818 -33.867695 -15.383193 -7.027214 12.891171 -3.154258 12.988373 4.512336 -3.521967 9.154817 6.304141 6.377936 -45.495033 -88.335114 -5.097816 -4.072440 68.524513 9.153823 2.160924 -8.682713 3.089181 -14.089146 8.026228 76.429474 16.794518 -10.643060 124.519447 23.760080 -48.986088 -10.529568 5.977980 -9.281447 -15.702785 36.353058 18.138283 59.519520 -1.357165 -29.503965 -21.795769 -2.923073 12.245950 -29.194517 -34.992893 -8.302148 49.594536 -5.979369 39.072617 -15.312929 2.642382 -14.381847 
-14.664508 37.521805 -35.994083 -3.629763 0.923228 -10.010970 0.000000 0.000000 0.000000 13.762360 -1.324118 -34.239094 -15.907554 -7.047568 13.511087 -3.001743 13.409638 4.900373 -3.521967 9.154817 6.304141 7.012939 -44.428185 -88.611069 -5.079723 -4.056728 68.838623 8.561201 2.098866 -8.631197 3.089181 -14.089146 8.026228 76.431335 16.214327 -10.911544 125.369720 23.558878 -48.816040 -11.235108 7.736159 -9.447115 -15.487975 36.490589 18.306025 59.754280 -1.366617 -29.110361 -22.207424 -2.975652 12.366392 -29.479712 -34.771420 -7.991502 49.674667 -6.089008 39.264339 -15.261981 2.633586 -14.385398 
-14.605650 37.435261 -35.981728 -3.503256 0.729970 -10.410921 0.000000 0.000000 0.000000 14.018759 -1.137109 -34.333969 -16.073740 -6.858941 13.790936 -2.896485 13.295218 5.269891 -3.521967 9.154817 6.304141 8.025205 -43.621918 -89.361000 -4.982895 -4.225680 69.471367 7.797764 1.928619 -8.557408 3.089181 -14.089146 8.026228 76.449242 16.045359 -11.418223 125.876411 23.299189 -48.597240 -11.172801 8.836349 -9.468926 -15.702767 36.616287 18.089239 60.423855 -1.178353 -28.778835 -22.687784 -3.050982 12.496571 -29.926680 -34.494633 -7.639056 49.829967 -6.109063 39.298172 -15.248546 2.617159 -14.393812 
